<?xml version="1.0" encoding="utf-8"?>
<!-- Generator: Adobe Illustrator 22.1.0, SVG Export Plug-In . SVG Version: 6.00 Build 0)  -->
<svg version="1.1" id="图层_1" xmlns="http://www.w3.org/2000/svg" xmlns:xlink="http://www.w3.org/1999/xlink" x="0px" y="0px"
	 viewBox="0 0 512 512" style="enable-background:new 0 0 512 512;" xml:space="preserve">
<style type="text/css">
	.st0{fill:#222222;}
	.st1{fill:#FFFFFF;}
	.st2{fill:none;stroke:#000000;stroke-miterlimit:10;}
</style>
<g id="NexT" xmlns:cc="http://creativecommons.org/ns#" xmlns:dc="http://purl.org/dc/elements/1.1/" xmlns:rdf="http://www.w3.org/1999/02/22-rdf-syntax-ns#" xmlns:svg="http://www.w3.org/2000/svg">
	<path id="path3384" class="st0" d="M256.4,25.8l-200,115.5L56,371.5l199.6,114.7l200-115.5l0.4-230.2L256.4,25.8z M349,354.6
		l-18.4,10.7l-18.6-11l0,0L200,212v142.6l-18.4,10.7l-18.6-11v-197l18.5-10.6l18.5,10.8l0,0L312,302V157.4l18.5-10.6l18.5,10.8
		V354.6z"/>
	<rect x="117.3" y="136" class="st0" width="254.7" height="244.7"/>
	<g>
		<path class="st1" d="M336.6,333.1c-31.5,0-55.8-15.3-80.5-44.5c-24.7,29.3-49.5,45-80.5,45c-50,0-78.8-34.7-78.8-78.8
			s28.8-78.7,78.8-78.7c30.6,0,55.8,15.8,80.5,45c24.8-29.3,48.6-45,80.5-45c49.9,0,78.7,34.6,78.7,78.7S386.6,333.1,336.6,333.1z
			 M176,220.1c-19.8,0-35.1,14-35.1,35.5c0,21.6,15.3,35.6,35.1,35.6c18.9,0,32.4-15.3,49.5-35.6C208.4,235.4,194.9,220.1,176,220.1
			z M335.7,220.6c-18.9,0-31.9,14.9-49,35.1c17.1,20.3,30.2,35.6,49,35.6c19.8,0,35.5-14,35.5-35.6
			C371.3,234.1,355.5,220.6,335.7,220.6z"/>
	</g>
	<line class="st2" x1="255.6" y1="463" x2="326.4" y2="392.3"/>
</g>
<g id="图层_2_1_">
</g>
<rect x="218.5" y="369.3" class="st0" width="58.3" height="93.8"/>
<rect x="255.6" y="396" class="st0" width="55.1" height="1"/>
<rect x="257.5" y="367.5" class="st0" width="68.9" height="76.5"/>
</svg>
