<?xml version="1.0" encoding="utf-8"?>
<!-- Generator: Adobe Illustrator 22.1.0, SVG Export Plug-In . SVG Version: 6.00 Build 0)  -->
<svg version="1.1" id="图层_1" xmlns="http://www.w3.org/2000/svg" xmlns:xlink="http://www.w3.org/1999/xlink" x="0px" y="0px"
	 viewBox="0 0 220 40" style="enable-background:new 0 0 220 40;" xml:space="preserve">
<style type="text/css">
	.st0{fill:none;}
</style>
<g>
	<path d="M19,31.6c-1.9,1.9-4.3,2.9-7.1,2.9c-2.9,0-5.2-1-7.1-2.9c-2.7-2.7-2.6-5.7-2.6-10.9c0-5.2,0-8.2,2.6-10.9C6.6,8,9,7,11.9,7
		c2.9,0,5.3,1,7.1,2.9c2.7,2.7,2.6,5.7,2.6,10.9C21.6,25.9,21.7,28.9,19,31.6z M15.9,12.3c-1-1-2.4-1.7-4-1.7c-1.6,0-3.1,0.6-4,1.7
		c-1.3,1.4-1.6,3-1.6,8.4s0.3,7,1.6,8.4c1,1,2.4,1.7,4,1.7c1.6,0,3.1-0.6,4-1.7c1.3-1.4,1.6-3,1.6-8.4S17.2,13.8,15.9,12.3z"/>
	<path d="M37,34.5c-5.5,0-9.7-3.8-9.7-9.3V7.2h4.1V25c0,3.6,2.2,5.9,5.6,5.9c3.4,0,5.6-2.2,5.6-5.9V7.2h4.1v17.9
		C46.7,30.7,42.5,34.5,37,34.5z"/>
	<path d="M68.3,34.3l-5.7-11.4h-5.1v11.4h-4.1V7.2h10.5c5.1,0,8.4,3.3,8.4,7.9c0,3.9-2.4,6.3-5.4,7.2l6.2,12H68.3z M63.5,10.9h-6.1
		v8.5h6.1c2.7,0,4.6-1.6,4.6-4.2S66.3,10.9,63.5,10.9z"/>
	<path d="M94.1,31.6c-1.9,1.9-4.3,2.9-7.1,2.9s-5.2-1-7.1-2.9c-2.7-2.7-2.6-5.7-2.6-10.9c0-5.2,0-8.2,2.6-10.9C81.7,8,84.1,7,87,7
		s5.3,1,7.1,2.9c2.7,2.7,2.6,5.7,2.6,10.9C96.7,25.9,96.8,28.9,94.1,31.6z M91,12.3c-1-1-2.4-1.7-4-1.7s-3.1,0.6-4,1.7
		c-1.3,1.4-1.6,3-1.6,8.4s0.3,7,1.6,8.4c0.9,1,2.4,1.7,4,1.7s3.1-0.6,4-1.7c1.3-1.4,1.6-3,1.6-8.4S92.3,13.8,91,12.3z"/>
	<path d="M113.7,34.3h-10.9V7.2h10.5c5,0,8.2,2.8,8.2,7.4c0,2.9-1.8,5-3.6,5.7c2.1,0.8,4.1,2.9,4.1,6.3
		C121.9,31.6,118.5,34.3,113.7,34.3z M113,10.9h-6.1v7.8h6.1c2.6,0,4.4-1.4,4.4-3.9C117.4,12.3,115.6,10.9,113,10.9z M113.3,22.3
		h-6.5v8.2h6.5c2.8,0,4.4-1.7,4.4-4.1C117.8,24,116.2,22.3,113.3,22.3z"/>
	<path d="M143.9,31.6c-1.9,1.9-4.3,2.9-7.1,2.9s-5.2-1-7.1-2.9c-2.7-2.7-2.6-5.7-2.6-10.9c0-5.2,0-8.2,2.6-10.9
		c1.9-1.9,4.2-2.9,7.1-2.9s5.3,1,7.1,2.9c2.7,2.7,2.6,5.7,2.6,10.9C146.4,25.9,146.5,28.9,143.9,31.6z M140.7,12.3
		c-1-1-2.4-1.7-4-1.7s-3.1,0.6-4,1.7c-1.3,1.4-1.6,3-1.6,8.4s0.3,7,1.6,8.4c0.9,1,2.4,1.7,4,1.7s3.1-0.6,4-1.7
		c1.3-1.4,1.6-3,1.6-8.4S142.1,13.8,140.7,12.3z"/>
	<path d="M167.5,34.3l-5.7-11.4h-5.1v11.4h-4.1V7.2H163c5.1,0,8.4,3.3,8.4,7.9c0,3.9-2.4,6.3-5.4,7.2l6.2,12H167.5z M162.7,10.9
		h-6.1v8.5h6.1c2.7,0,4.6-1.6,4.6-4.2S165.4,10.9,162.7,10.9z"/>
	<path d="M193.3,31.6c-1.9,1.9-4.3,2.9-7.1,2.9s-5.2-1-7.1-2.9c-2.7-2.7-2.6-5.7-2.6-10.9c0-5.2,0-8.2,2.6-10.9
		c1.9-1.9,4.2-2.9,7.1-2.9s5.3,1,7.1,2.9c2.7,2.7,2.6,5.7,2.6,10.9C195.9,25.9,196,28.9,193.3,31.6z M190.2,12.3c-1-1-2.4-1.7-4-1.7
		s-3.1,0.6-4,1.7c-1.3,1.4-1.6,3-1.6,8.4s0.3,7,1.6,8.4c0.9,1,2.4,1.7,4,1.7s3.1-0.6,4-1.7c1.3-1.4,1.6-3,1.6-8.4
		S191.5,13.8,190.2,12.3z"/>
	<path d="M209.1,34.5c-4.1,0-7-0.9-9.6-3.6l2.7-2.7c2,2,4.1,2.6,6.9,2.6c3.5,0,5.6-1.5,5.6-4.1c0-1.2-0.3-2.2-1.1-2.8
		c-0.7-0.6-1.4-0.9-3-1.1l-3.2-0.5c-2.2-0.3-4-1.1-5.1-2.2c-1.3-1.3-2-3-2-5.2c0-4.7,3.4-7.9,9-7.9c3.6,0,6.1,0.9,8.4,3.1l-2.6,2.6
		c-1.7-1.6-3.6-2.1-5.9-2.1c-3.2,0-4.9,1.8-4.9,4.2c0,1,0.3,1.9,1,2.5c0.7,0.6,1.8,1.1,3,1.3l3.1,0.5c2.5,0.4,3.9,1,5.1,2
		c1.5,1.3,2.2,3.2,2.2,5.5C218.9,31.5,214.8,34.5,209.1,34.5z"/>
</g>
<g>
	<rect x="99.8" y="22.6" class="st0" width="19.3" height="14.7"/>
</g>
<g>
</g>
<g>
</g>
<g>
</g>
<g>
</g>
<g>
</g>
<g>
</g>
<g>
</g>
<g>
</g>
<g>
</g>
<g>
</g>
<g>
</g>
</svg>
